<svg width="190" height="190" viewBox="0 0 190 190" fill="none" xmlns="http://www.w3.org/2000/svg">
<path d="M154.375 77.1875C160.671 77.1796 166.708 74.6749 171.16 70.2226C175.612 65.7703 178.117 59.734 178.125 53.4375V35.625H160.312C154.233 35.6346 148.392 37.9865 144.002 42.1919C140.928 36.6091 136.413 31.9532 130.927 28.7095C125.441 25.4658 119.186 23.7531 112.812 23.75H95V41.5625C95.011 51.0075 98.7679 60.0624 105.446 66.741C112.125 73.4196 121.18 77.1765 130.625 77.1875H136.562V154.375H65.3125V124.688H71.25C77.5465 124.68 83.5828 122.175 88.0351 117.723C92.4874 113.27 94.9921 107.234 95 100.938V83.125H77.1875C71.1085 83.1346 65.2669 85.4865 60.8772 89.6919C57.8032 84.1091 53.2879 79.4532 47.8021 76.2095C42.3162 72.9658 36.0606 71.2531 29.6875 71.25H11.875V89.0625C11.886 98.5075 15.6429 107.562 22.3215 114.241C29.0001 120.92 38.055 124.676 47.5 124.688H53.4375V154.375H11.875V166.25H178.125V154.375H148.438V77.1875H154.375ZM148.438 59.375C148.438 56.2256 149.689 53.2051 151.916 50.9781C154.143 48.7511 157.163 47.5 160.312 47.5H166.25V53.4375C166.25 56.5869 164.999 59.6074 162.772 61.8344C160.545 64.0614 157.524 65.3125 154.375 65.3125H148.438V59.375ZM65.3125 106.875C65.3125 103.726 66.5636 100.705 68.7906 98.4781C71.0176 96.2511 74.0381 95 77.1875 95H83.125V100.938C83.125 104.087 81.8739 107.107 79.6469 109.334C77.4199 111.561 74.3994 112.812 71.25 112.812H65.3125V106.875ZM53.4375 112.812H47.5C41.2035 112.805 35.1672 110.3 30.7149 105.848C26.2626 101.395 23.7579 95.359 23.75 89.0625V83.125H29.6875C35.984 83.1329 42.0203 85.6376 46.4726 90.0899C50.9249 94.5422 53.4296 100.579 53.4375 106.875V112.812ZM136.562 65.3125H130.625C124.329 65.3046 118.292 62.7999 113.84 58.3476C109.388 53.8953 106.883 47.859 106.875 41.5625V35.625H112.812C119.109 35.6329 125.145 38.1376 129.598 42.5899C134.05 47.0422 136.555 53.0785 136.562 59.375V65.3125Z" fill="#ADBC42"/>
</svg>
