<svg width="184" height="184" viewBox="0 0 184 184" fill="none" xmlns="http://www.w3.org/2000/svg">
<g clip-path="url(#clip0_210_16621)">
<path d="M57.5 184V123.05C50.6 119.6 46 111.55 46 103.5V57.4995C46 49.4496 50.6 42.5495 57.5 37.9495V34.4995C57.5 21.8495 47.15 11.4995 34.5 11.4995C21.85 11.4995 11.5 21.8495 11.5 34.4995C11.5 47.1495 21.85 57.4995 34.5 57.4995H11.5C5.75 57.4995 0 63.2495 0 68.9995V115C0 120.75 5.75 126.5 11.5 126.5V184H57.5ZM172.5 57.4995H149.5C162.15 57.4995 172.5 47.1495 172.5 34.4995C172.5 21.8495 162.15 11.4995 149.5 11.4995C136.85 11.4995 126.5 21.8495 126.5 34.4995V37.9495C133.4 42.5495 138 49.4496 138 57.4995V103.5C138 111.55 133.4 119.6 126.5 123.05V184H172.5V126.5C178.25 126.5 184 120.75 184 115V68.9995C184 63.2495 178.25 57.4995 172.5 57.4995ZM115 22.9995C115.069 26.0624 114.526 29.1083 113.402 31.9583C112.278 34.8083 110.596 37.4051 108.454 39.596C106.313 41.787 103.755 43.5281 100.932 44.717C98.108 45.9059 95.0753 46.5188 92.0116 46.5195C88.9479 46.5203 85.915 45.909 83.0908 44.7215C80.2666 43.5339 77.7082 41.7942 75.5656 39.6043C73.4231 37.4144 71.7397 34.8185 70.6142 31.969C69.4887 29.1196 68.9438 26.074 69.0115 23.011C69.1444 17.0016 71.6246 11.283 75.9212 7.07929C80.2177 2.87564 85.9892 0.521035 92.0001 0.519532C98.0111 0.518029 103.784 2.86974 108.082 7.07125C112.381 11.2728 114.864 16.9902 115 22.9995Z" fill="#ADBC42"/>
<path d="M115 46H69C63.25 46 57.5 51.75 57.5 57.5V103.5C57.5 109.25 63.25 115 69 115V184H115V115C120.75 115 126.5 109.25 126.5 103.5V57.5C126.5 51.75 120.75 46 115 46Z" fill="#ADBC42"/>
</g>
<defs>
<clipPath id="clip0_210_16621">
<rect width="184" height="184" fill="white"/>
</clipPath>
</defs>
</svg>
