<svg width="175" height="175" viewBox="0 0 175 175" fill="none" xmlns="http://www.w3.org/2000/svg">
<path d="M76.5625 21.875H54.6875C49.6603 21.875 44.6824 22.8652 40.0379 24.789C35.3934 26.7128 31.1733 29.5326 27.6186 33.0873C24.0638 36.6421 21.244 40.8622 19.3202 45.5066C17.3964 50.1511 16.4063 55.1291 16.4062 60.1562C16.4063 65.1834 17.3964 70.1614 19.3202 74.8059C21.244 79.4503 24.0638 83.6704 27.6186 87.2252C31.1733 90.7799 35.3934 93.5997 40.0379 95.5235C44.6824 97.4473 49.6603 98.4375 54.6875 98.4375H76.5625V131.25H27.3438V153.125H76.5625V175H98.4375V153.125H120.312C130.465 153.125 140.202 149.092 147.381 141.913C154.561 134.734 158.594 124.997 158.594 114.844C158.594 104.691 154.561 94.9539 147.381 87.7748C140.202 80.5957 130.465 76.5625 120.312 76.5625H98.4375V43.75H147.656V21.875H98.4375V0H76.5625V21.875ZM98.4375 98.4375H120.312C124.664 98.4375 128.837 100.166 131.913 103.243C134.99 106.32 136.719 110.493 136.719 114.844C136.719 119.195 134.99 123.368 131.913 126.445C128.837 129.521 124.664 131.25 120.312 131.25H98.4375V98.4375ZM76.5625 76.5625H54.6875C52.533 76.5625 50.3996 76.1381 48.4091 75.3137C46.4186 74.4892 44.61 73.2807 43.0865 71.7572C41.5631 70.2338 40.3546 68.4251 39.5301 66.4346C38.7056 64.4442 38.2812 62.3107 38.2812 60.1562C38.2812 58.0018 38.7056 55.8683 39.5301 53.8778C40.3546 51.8874 41.5631 50.0787 43.0865 48.5553C44.61 47.0318 46.4186 45.8233 48.4091 44.9989C50.3996 44.1744 52.533 43.75 54.6875 43.75H76.5625V76.5625Z" fill="#ADBC42"/>
</svg>
