<svg width="387" height="387" viewBox="0 0 387 387" fill="none" xmlns="http://www.w3.org/2000/svg">
<path d="M3 301.5C3 276.371 23.371 256 48.5 256H320.5C345.629 256 366 276.371 366 301.5V301.5C366 326.629 345.629 347 320.5 347H48.5C23.371 347 3 326.629 3 301.5V301.5Z" fill="url(#paint0_linear_108_2850)"/>
<ellipse cx="45.5" cy="301" rx="35.5" ry="35" fill="#ADBC42"/>
<g filter="url(#filter0_d_108_2850)">
<path d="M104.872 279.96H106.888V287.208H116.344V279.96H118.36V297H116.344V289.056H106.888V297H104.872V279.96ZM121.307 293.52C121.307 290.688 123.899 289.536 126.419 289.536C127.475 289.536 128.819 289.776 129.755 290.232V289.32C129.755 287.424 128.651 285.96 126.635 285.96C125.243 285.96 123.995 286.656 123.443 287.976L121.763 287.4C122.459 285.336 124.595 284.28 126.659 284.28C129.683 284.28 131.603 286.296 131.603 289.368V297H129.923L129.803 295.08C129.011 296.616 127.427 297.36 125.747 297.36C123.467 297.36 121.307 296.04 121.307 293.52ZM123.251 293.448C123.251 295.032 124.667 295.752 126.107 295.752C128.123 295.752 129.755 294.264 129.755 292.176V291.72C128.747 291.312 127.715 291.048 126.635 291.048C125.123 291.048 123.251 291.624 123.251 293.448ZM134.868 284.616H136.596L136.692 286.584C137.484 285.072 139.02 284.256 140.7 284.256C143.892 284.256 145.356 286.752 145.356 289.752V297H143.436V289.872C143.436 287.832 142.644 286.008 140.34 286.008C138.228 286.008 136.788 287.52 136.788 289.656V297H134.868V284.616ZM153.809 297.36C150.281 297.36 148.001 294.216 148.001 290.832C148.001 287.448 150.257 284.256 153.905 284.256C155.753 284.256 157.337 285.12 158.273 286.728V279.192H160.193V297H158.465L158.369 294.648C157.409 296.4 155.801 297.36 153.809 297.36ZM149.969 290.808C149.969 292.032 150.305 293.328 151.169 294.24C151.913 295.128 152.993 295.608 154.145 295.608C156.785 295.608 158.321 293.328 158.321 290.808C158.321 289.536 157.985 288.336 157.145 287.352C156.329 286.488 155.345 286.008 154.145 286.008C151.505 286.008 149.969 288.312 149.969 290.808ZM163.555 297V279.192H165.475V297H163.555ZM170.748 297H168.828V284.616H170.748V297ZM169.788 282.312C169.092 282.312 168.468 281.688 168.468 280.992C168.468 280.272 169.068 279.672 169.788 279.672C170.532 279.672 171.108 280.224 171.108 280.992C171.108 281.712 170.508 282.312 169.788 282.312ZM174.102 284.616H175.83L175.926 286.584C176.718 285.072 178.254 284.256 179.934 284.256C183.126 284.256 184.59 286.752 184.59 289.752V297H182.67V289.872C182.67 287.832 181.878 286.008 179.574 286.008C177.462 286.008 176.022 287.52 176.022 289.656V297H174.102V284.616ZM187.236 290.592C187.236 287.28 189.54 284.256 193.068 284.256C194.892 284.256 196.572 285.144 197.46 286.776L197.556 284.616H199.284V295.944C199.284 299.52 197.1 302.256 193.284 302.256C191.028 302.256 189.108 301.32 187.908 299.328L189.516 298.512C190.404 299.832 191.676 300.6 193.284 300.6C195.996 300.6 197.364 298.632 197.364 296.016V294.432C196.428 296.016 194.82 296.88 192.972 296.88C189.54 296.88 187.236 293.928 187.236 290.592ZM189.204 290.568C189.204 292.968 190.716 295.128 193.308 295.128C195.852 295.128 197.412 293.04 197.412 290.568C197.412 288.144 195.948 286.008 193.308 286.008C190.764 286.008 189.204 288.096 189.204 290.568ZM208.091 297V279.96H210.107V297H208.091ZM213.664 284.616H215.392L215.488 286.584C216.28 285.072 217.816 284.256 219.496 284.256C222.688 284.256 224.152 286.752 224.152 289.752V297H222.232V289.872C222.232 287.832 221.44 286.008 219.136 286.008C217.024 286.008 215.584 287.52 215.584 289.656V297H213.664V284.616ZM232.606 297.36C229.078 297.36 226.798 294.216 226.798 290.832C226.798 287.448 229.054 284.256 232.702 284.256C234.598 284.256 236.23 285.216 237.166 286.872L237.262 284.616H238.99V301.896H237.07V294.816C236.134 296.448 234.478 297.36 232.606 297.36ZM228.766 290.808C228.766 292.032 229.102 293.328 229.966 294.24C230.71 295.128 231.79 295.608 232.942 295.608C235.582 295.608 237.118 293.328 237.118 290.808C237.118 289.536 236.782 288.336 235.942 287.352C235.126 286.488 234.142 286.008 232.942 286.008C230.302 286.008 228.766 288.312 228.766 290.808ZM242.256 284.616H244.176V291.648C244.176 293.688 245.136 295.608 247.44 295.608C249.744 295.608 250.704 293.784 250.704 291.648V284.616H252.624V291.624C252.624 294.792 250.824 297.36 247.392 297.36C244.008 297.36 242.256 294.912 242.256 291.624V284.616ZM257.819 297H255.899V284.616H257.819V297ZM256.859 282.312C256.163 282.312 255.539 281.688 255.539 280.992C255.539 280.272 256.139 279.672 256.859 279.672C257.603 279.672 258.179 280.224 258.179 280.992C258.179 281.712 257.579 282.312 256.859 282.312ZM261.172 284.616H262.9L263.02 286.92C263.644 285.384 264.844 284.448 266.524 284.448C266.788 284.448 267.052 284.472 267.268 284.496C267.484 284.544 267.652 284.592 267.82 284.664L267.58 286.488C267.22 286.344 266.836 286.32 266.452 286.32C264.148 286.32 263.092 288.312 263.092 290.424V297H261.172V284.616ZM272.092 297H270.172V284.616H272.092V297ZM271.132 282.312C270.436 282.312 269.812 281.688 269.812 280.992C269.812 280.272 270.412 279.672 271.132 279.672C271.876 279.672 272.452 280.224 272.452 280.992C272.452 281.712 271.852 282.312 271.132 282.312ZM274.822 290.832C274.822 287.4 277.078 284.28 280.75 284.28C284.182 284.28 286.438 286.992 286.438 290.4V291.192H276.814C277.006 293.592 278.35 295.656 281.014 295.656C282.526 295.656 283.75 295.008 284.566 293.712L286.198 294.456C285.19 296.376 283.198 297.36 281.062 297.36C277.342 297.36 274.822 294.552 274.822 290.832ZM280.75 285.912C278.59 285.912 277.246 287.688 276.91 289.704H284.422C284.23 287.688 282.958 285.912 280.75 285.912ZM288.411 294.384L290.139 293.76C290.739 294.936 291.795 295.68 293.139 295.68C294.363 295.68 295.803 295.056 295.803 293.64C295.803 292.608 295.059 291.936 293.547 291.624L292.611 291.432C290.715 291.048 288.771 290.184 288.771 287.952C288.771 285.504 290.859 284.256 293.139 284.256C295.155 284.256 296.859 285.24 297.579 287.208L295.851 287.784C295.587 287.184 295.227 286.728 294.771 286.392C294.291 286.08 293.739 285.912 293.115 285.912C292.011 285.912 290.691 286.464 290.691 287.76C290.691 289.104 292.107 289.512 293.187 289.704L294.123 289.896C296.043 290.28 297.771 291.264 297.771 293.448C297.771 295.992 295.515 297.36 293.139 297.36C291.099 297.36 289.203 296.352 288.411 294.384ZM104.08 319.52C104.08 316.688 106.672 315.536 109.192 315.536C110.248 315.536 111.592 315.776 112.528 316.232V315.32C112.528 313.424 111.424 311.96 109.408 311.96C108.016 311.96 106.768 312.656 106.216 313.976L104.536 313.4C105.232 311.336 107.368 310.28 109.432 310.28C112.456 310.28 114.376 312.296 114.376 315.368V323H112.696L112.576 321.08C111.784 322.616 110.2 323.36 108.52 323.36C106.24 323.36 104.08 322.04 104.08 319.52ZM106.024 319.448C106.024 321.032 107.44 321.752 108.88 321.752C110.896 321.752 112.528 320.264 112.528 318.176V317.72C111.52 317.312 110.488 317.048 109.408 317.048C107.896 317.048 106.024 317.624 106.024 319.448ZM117.641 310.616H119.369L119.465 312.584C120.257 311.072 121.793 310.256 123.473 310.256C126.665 310.256 128.129 312.752 128.129 315.752V323H126.209V315.872C126.209 313.832 125.417 312.008 123.113 312.008C121.001 312.008 119.561 313.52 119.561 315.656V323H117.641V310.616ZM136.583 323.36C133.055 323.36 130.775 320.216 130.775 316.832C130.775 313.448 133.031 310.256 136.679 310.256C138.527 310.256 140.111 311.12 141.047 312.728V305.192H142.967V323H141.239L141.143 320.648C140.183 322.4 138.575 323.36 136.583 323.36ZM132.743 316.808C132.743 318.032 133.079 319.328 133.943 320.24C134.687 321.128 135.767 321.608 136.919 321.608C139.559 321.608 141.095 319.328 141.095 316.808C141.095 315.536 140.759 314.336 139.919 313.352C139.103 312.488 138.119 312.008 136.919 312.008C134.279 312.008 132.743 314.312 132.743 316.808ZM156.762 323.36C153.234 323.36 150.954 320.216 150.954 316.832C150.954 313.448 153.21 310.256 156.858 310.256C158.754 310.256 160.386 311.216 161.322 312.872L161.418 310.616H163.146V327.896H161.226V320.816C160.29 322.448 158.634 323.36 156.762 323.36ZM152.922 316.808C152.922 318.032 153.258 319.328 154.122 320.24C154.866 321.128 155.946 321.608 157.098 321.608C159.738 321.608 161.274 319.328 161.274 316.808C161.274 315.536 160.938 314.336 160.098 313.352C159.282 312.488 158.298 312.008 157.098 312.008C154.458 312.008 152.922 314.312 152.922 316.808ZM166.412 310.616H168.332V317.648C168.332 319.688 169.292 321.608 171.596 321.608C173.9 321.608 174.86 319.784 174.86 317.648V310.616H176.78V317.624C176.78 320.792 174.98 323.36 171.548 323.36C168.164 323.36 166.412 320.912 166.412 317.624V310.616ZM185.551 323.36C181.903 323.36 179.431 320.408 179.431 316.808C179.431 313.28 181.879 310.256 185.599 310.256C189.271 310.256 191.719 313.16 191.719 316.808C191.719 320.36 189.295 323.36 185.551 323.36ZM181.399 316.808C181.399 318.032 181.735 319.328 182.599 320.24C183.343 321.128 184.423 321.608 185.575 321.608C188.215 321.608 189.751 319.328 189.751 316.808C189.751 315.536 189.415 314.336 188.575 313.352C187.759 312.488 186.775 312.008 185.575 312.008C182.935 312.008 181.399 314.312 181.399 316.808ZM192.868 310.616H195.148V306.464H197.068V310.616H200.956V312.248H197.068V319.304C197.068 320.552 197.572 321.632 198.964 321.632C199.612 321.632 200.356 321.416 200.908 321.056L201.484 322.544C200.668 323.12 199.78 323.36 198.796 323.36C196.396 323.36 195.148 321.776 195.148 319.4V312.248H192.868V310.616ZM203.103 316.832C203.103 313.4 205.359 310.28 209.031 310.28C212.463 310.28 214.719 312.992 214.719 316.4V317.192H205.095C205.287 319.592 206.631 321.656 209.295 321.656C210.807 321.656 212.031 321.008 212.847 319.712L214.479 320.456C213.471 322.376 211.479 323.36 209.343 323.36C205.623 323.36 203.103 320.552 203.103 316.832ZM209.031 311.912C206.871 311.912 205.527 313.688 205.191 315.704H212.703C212.511 313.688 211.239 311.912 209.031 311.912ZM222.711 310.616H224.439L224.559 312.92C225.183 311.384 226.383 310.448 228.063 310.448C228.327 310.448 228.591 310.472 228.807 310.496C229.023 310.544 229.191 310.592 229.359 310.664L229.119 312.488C228.759 312.344 228.375 312.32 227.991 312.32C225.687 312.32 224.631 314.312 224.631 316.424V323H222.711V310.616ZM230.642 316.832C230.642 313.4 232.898 310.28 236.57 310.28C240.002 310.28 242.258 312.992 242.258 316.4V317.192H232.634C232.826 319.592 234.17 321.656 236.834 321.656C238.346 321.656 239.57 321.008 240.386 319.712L242.018 320.456C241.01 322.376 239.018 323.36 236.882 323.36C233.162 323.36 230.642 320.552 230.642 316.832ZM236.57 311.912C234.41 311.912 233.066 313.688 232.73 315.704H240.242C240.05 313.688 238.778 311.912 236.57 311.912ZM250.302 323.36C246.774 323.36 244.494 320.216 244.494 316.832C244.494 313.448 246.75 310.256 250.398 310.256C252.294 310.256 253.926 311.216 254.862 312.872L254.958 310.616H256.686V327.896H254.766V320.816C253.83 322.448 252.174 323.36 250.302 323.36ZM246.462 316.808C246.462 318.032 246.798 319.328 247.662 320.24C248.406 321.128 249.486 321.608 250.638 321.608C253.278 321.608 254.814 319.328 254.814 316.808C254.814 315.536 254.478 314.336 253.638 313.352C252.822 312.488 251.838 312.008 250.638 312.008C247.998 312.008 246.462 314.312 246.462 316.808ZM259.951 310.616H261.871V317.648C261.871 319.688 262.831 321.608 265.135 321.608C267.439 321.608 268.399 319.784 268.399 317.648V310.616H270.319V317.624C270.319 320.792 268.519 323.36 265.087 323.36C261.703 323.36 259.951 320.912 259.951 317.624V310.616ZM272.97 316.832C272.97 313.4 275.226 310.28 278.898 310.28C282.33 310.28 284.586 312.992 284.586 316.4V317.192H274.962C275.154 319.592 276.498 321.656 279.162 321.656C280.674 321.656 281.898 321.008 282.714 319.712L284.346 320.456C283.338 322.376 281.346 323.36 279.21 323.36C275.49 323.36 272.97 320.552 272.97 316.832ZM278.898 311.912C276.738 311.912 275.394 313.688 275.058 315.704H282.57C282.378 313.688 281.106 311.912 278.898 311.912ZM286.559 320.384L288.287 319.76C288.887 320.936 289.943 321.68 291.287 321.68C292.511 321.68 293.951 321.056 293.951 319.64C293.951 318.608 293.207 317.936 291.695 317.624L290.759 317.432C288.863 317.048 286.919 316.184 286.919 313.952C286.919 311.504 289.007 310.256 291.287 310.256C293.303 310.256 295.007 311.24 295.727 313.208L293.999 313.784C293.735 313.184 293.375 312.728 292.919 312.392C292.439 312.08 291.887 311.912 291.263 311.912C290.159 311.912 288.839 312.464 288.839 313.76C288.839 315.104 290.255 315.512 291.335 315.704L292.271 315.896C294.191 316.28 295.919 317.264 295.919 319.448C295.919 321.992 293.663 323.36 291.287 323.36C289.247 323.36 287.351 322.352 286.559 320.384ZM297.118 310.616H299.398V306.464H301.318V310.616H305.206V312.248H301.318V319.304C301.318 320.552 301.822 321.632 303.214 321.632C303.862 321.632 304.606 321.416 305.158 321.056L305.734 322.544C304.918 323.12 304.03 323.36 303.046 323.36C300.646 323.36 299.398 321.776 299.398 319.4V312.248H297.118V310.616ZM307.395 320.384L309.123 319.76C309.723 320.936 310.779 321.68 312.123 321.68C313.347 321.68 314.787 321.056 314.787 319.64C314.787 318.608 314.043 317.936 312.531 317.624L311.595 317.432C309.699 317.048 307.755 316.184 307.755 313.952C307.755 311.504 309.843 310.256 312.123 310.256C314.139 310.256 315.843 311.24 316.563 313.208L314.835 313.784C314.571 313.184 314.211 312.728 313.755 312.392C313.275 312.08 312.723 311.912 312.099 311.912C310.995 311.912 309.675 312.464 309.675 313.76C309.675 315.104 311.091 315.512 312.171 315.704L313.107 315.896C315.027 316.28 316.755 317.264 316.755 319.448C316.755 321.992 314.499 323.36 312.123 323.36C310.083 323.36 308.187 322.352 307.395 320.384Z" fill="#101517"/>
</g>
<path d="M41.0905 321.891L35.8312 312.116L26.0562 306.856L29.828 303.138L37.5312 304.466L42.9499 299.047L26.1093 291.875L30.5718 287.306L51.0249 290.919L57.6124 284.331C58.427 283.517 59.4364 283.109 60.6405 283.109C61.8447 283.109 62.8541 283.517 63.6686 284.331C64.4832 285.146 64.8905 286.146 64.8905 287.332C64.8905 288.518 64.4832 289.518 63.6686 290.334L57.028 296.975L60.6405 317.375L56.1249 321.891L48.8999 305.05L43.4812 310.469L44.8624 318.119L41.0905 321.891Z" fill="white"/>
<path d="M3 301.5C3 276.371 23.371 256 48.5 256H320.5C345.629 256 366 276.371 366 301.5V301.5C366 326.629 345.629 347 320.5 347H48.5C23.371 347 3 326.629 3 301.5V301.5Z" fill="url(#paint1_linear_108_2850)"/>
<g filter="url(#filter1_d_108_2850)">
<path d="M77.864 73.52L79.76 72.92C80.36 74.552 81.8 75.56 83.552 75.56C85.424 75.56 87.176 74.384 87.176 72.344C87.176 70.472 85.688 69.68 84.056 69.32L83 69.08C80.528 68.504 78.296 67.208 78.296 64.4C78.296 61.496 80.696 59.6 83.528 59.6C86.024 59.6 88.184 60.968 88.952 63.416L87.056 64.016C86.456 62.432 85.256 61.4 83.528 61.4C81.848 61.4 80.336 62.432 80.336 64.256C80.336 66.128 82.088 66.824 83.648 67.184L84.704 67.424C87.224 68.024 89.216 69.416 89.216 72.224C89.216 75.392 86.672 77.36 83.576 77.36C81.056 77.36 78.704 76.016 77.864 73.52ZM97.7463 77.36C94.0983 77.36 91.6263 74.408 91.6263 70.808C91.6263 67.28 94.0743 64.256 97.7943 64.256C101.466 64.256 103.914 67.16 103.914 70.808C103.914 74.36 101.49 77.36 97.7463 77.36ZM93.5943 70.808C93.5943 72.032 93.9303 73.328 94.7943 74.24C95.5383 75.128 96.6183 75.608 97.7703 75.608C100.41 75.608 101.946 73.328 101.946 70.808C101.946 69.536 101.61 68.336 100.77 67.352C99.9543 66.488 98.9703 66.008 97.7703 66.008C95.1303 66.008 93.5943 68.312 93.5943 70.808ZM106.545 64.616H108.465V71.648C108.465 73.688 109.425 75.608 111.729 75.608C114.033 75.608 114.993 73.784 114.993 71.648V64.616H116.913V71.624C116.913 74.792 115.113 77.36 111.681 77.36C108.297 77.36 106.545 74.912 106.545 71.624V64.616ZM120.188 64.616H121.916L122.036 66.92C122.66 65.384 123.86 64.448 125.54 64.448C125.804 64.448 126.068 64.472 126.284 64.496C126.5 64.544 126.668 64.592 126.836 64.664L126.596 66.488C126.236 66.344 125.852 66.32 125.468 66.32C123.164 66.32 122.108 68.312 122.108 70.424V77H120.188V64.616ZM134.071 77.36C130.495 77.36 128.119 74.408 128.119 70.904C128.119 67.448 130.471 64.256 134.167 64.256C136.399 64.256 138.247 65.48 139.111 67.568L137.359 68.168C136.687 66.896 135.583 66.008 134.095 66.008C131.503 66.008 130.087 68.504 130.087 70.88C130.087 72.56 130.831 74.552 132.487 75.248C132.967 75.488 133.495 75.608 134.071 75.608C135.535 75.608 136.879 74.816 137.503 73.472L139.255 74.072C138.415 76.184 136.303 77.36 134.071 77.36ZM143.764 77H141.844V64.616H143.764V77ZM142.804 62.312C142.108 62.312 141.484 61.688 141.484 60.992C141.484 60.272 142.084 59.672 142.804 59.672C143.548 59.672 144.124 60.224 144.124 60.992C144.124 61.712 143.524 62.312 142.804 62.312ZM147.118 64.616H148.846L148.942 66.584C149.734 65.072 151.27 64.256 152.95 64.256C156.142 64.256 157.606 66.752 157.606 69.752V77H155.686V69.872C155.686 67.832 154.894 66.008 152.59 66.008C150.478 66.008 149.038 67.52 149.038 69.656V77H147.118V64.616ZM160.251 70.592C160.251 67.28 162.555 64.256 166.083 64.256C167.907 64.256 169.587 65.144 170.475 66.776L170.571 64.616H172.299V75.944C172.299 79.52 170.115 82.256 166.299 82.256C164.043 82.256 162.123 81.32 160.923 79.328L162.531 78.512C163.419 79.832 164.691 80.6 166.299 80.6C169.011 80.6 170.379 78.632 170.379 76.016V74.432C169.443 76.016 167.835 76.88 165.987 76.88C162.555 76.88 160.251 73.928 160.251 70.592ZM162.219 70.568C162.219 72.968 163.731 75.128 166.323 75.128C168.867 75.128 170.427 73.04 170.427 70.568C170.427 68.144 168.963 66.008 166.323 66.008C163.779 66.008 162.219 68.096 162.219 70.568ZM180.914 64.616H182.642L182.738 66.584C183.53 65.072 185.066 64.256 186.746 64.256C189.938 64.256 191.402 66.752 191.402 69.752V77H189.482V69.872C189.482 67.832 188.69 66.008 186.386 66.008C184.274 66.008 182.834 67.52 182.834 69.656V77H180.914V64.616ZM194.048 70.832C194.048 67.4 196.304 64.28 199.976 64.28C203.408 64.28 205.664 66.992 205.664 70.4V71.192H196.04C196.232 73.592 197.576 75.656 200.24 75.656C201.752 75.656 202.976 75.008 203.792 73.712L205.424 74.456C204.416 76.376 202.424 77.36 200.288 77.36C196.568 77.36 194.048 74.552 194.048 70.832ZM199.976 65.912C197.816 65.912 196.472 67.688 196.136 69.704H203.648C203.456 67.688 202.184 65.912 199.976 65.912ZM211.475 77L207.299 64.616H209.315L212.411 74.648L215.603 64.616H217.331L220.499 74.648L223.595 64.616H225.563L221.387 77H219.539L216.443 67.088L213.323 77H211.475ZM232.922 59.192H234.842V66.8C235.802 65.144 237.41 64.256 239.306 64.256C242.858 64.256 245.114 67.376 245.114 70.784C245.114 74.168 242.858 77.36 239.21 77.36C237.314 77.36 235.682 76.4 234.746 74.744L234.65 77H232.922V59.192ZM238.97 66.008C236.33 66.008 234.794 68.312 234.794 70.808C234.794 72.032 235.13 73.328 235.994 74.24C236.738 75.128 237.818 75.608 238.97 75.608C241.61 75.608 243.146 73.328 243.146 70.808C243.146 69.536 242.81 68.336 241.97 67.352C241.154 66.488 240.17 66.008 238.97 66.008ZM247.852 64.616H249.58L249.7 66.92C250.324 65.384 251.524 64.448 253.204 64.448C253.468 64.448 253.732 64.472 253.948 64.496C254.164 64.544 254.332 64.592 254.5 64.664L254.26 66.488C253.9 66.344 253.516 66.32 253.132 66.32C250.828 66.32 249.772 68.312 249.772 70.424V77H247.852V64.616ZM255.924 73.52C255.924 70.688 258.516 69.536 261.036 69.536C262.092 69.536 263.436 69.776 264.372 70.232V69.32C264.372 67.424 263.268 65.96 261.252 65.96C259.86 65.96 258.612 66.656 258.06 67.976L256.38 67.4C257.076 65.336 259.212 64.28 261.276 64.28C264.3 64.28 266.22 66.296 266.22 69.368V77H264.54L264.42 75.08C263.628 76.616 262.044 77.36 260.364 77.36C258.084 77.36 255.924 76.04 255.924 73.52ZM257.868 73.448C257.868 75.032 259.284 75.752 260.724 75.752C262.74 75.752 264.372 74.264 264.372 72.176V71.72C263.364 71.312 262.332 71.048 261.252 71.048C259.74 71.048 257.868 71.624 257.868 73.448ZM269.485 64.616H271.213L271.309 66.584C272.101 65.072 273.637 64.256 275.317 64.256C278.509 64.256 279.973 66.752 279.973 69.752V77H278.053V69.872C278.053 67.832 277.261 66.008 274.957 66.008C272.845 66.008 271.405 67.52 271.405 69.656V77H269.485V64.616ZM288.427 77.36C284.899 77.36 282.619 74.216 282.619 70.832C282.619 67.448 284.875 64.256 288.523 64.256C290.371 64.256 291.955 65.12 292.891 66.728V59.192H294.811V77H293.083L292.987 74.648C292.027 76.4 290.419 77.36 288.427 77.36ZM284.587 70.808C284.587 72.032 284.923 73.328 285.787 74.24C286.531 75.128 287.611 75.608 288.763 75.608C291.403 75.608 292.939 73.328 292.939 70.808C292.939 69.536 292.603 68.336 291.763 67.352C290.947 66.488 289.963 66.008 288.763 66.008C286.123 66.008 284.587 68.312 284.587 70.808ZM83.864 103.36C80.336 103.36 78.056 100.216 78.056 96.832C78.056 93.448 80.312 90.256 83.96 90.256C85.808 90.256 87.392 91.12 88.328 92.728V85.192H90.248V103H88.52L88.424 100.648C87.464 102.4 85.856 103.36 83.864 103.36ZM80.024 96.808C80.024 98.032 80.36 99.328 81.224 100.24C81.968 101.128 83.048 101.608 84.2 101.608C86.84 101.608 88.376 99.328 88.376 96.808C88.376 95.536 88.04 94.336 87.2 93.352C86.384 92.488 85.4 92.008 84.2 92.008C81.56 92.008 80.024 94.312 80.024 96.808ZM92.9857 96.832C92.9857 93.4 95.2417 90.28 98.9137 90.28C102.346 90.28 104.602 92.992 104.602 96.4V97.192H94.9777C95.1697 99.592 96.5137 101.656 99.1777 101.656C100.69 101.656 101.914 101.008 102.73 99.712L104.362 100.456C103.354 102.376 101.362 103.36 99.2257 103.36C95.5057 103.36 92.9857 100.552 92.9857 96.832ZM98.9137 91.912C96.7537 91.912 95.4097 93.688 95.0737 95.704H102.586C102.394 93.688 101.122 91.912 98.9137 91.912ZM106.744 99.52C106.744 96.688 109.336 95.536 111.856 95.536C112.912 95.536 114.256 95.776 115.192 96.232V95.32C115.192 93.424 114.088 91.96 112.072 91.96C110.68 91.96 109.432 92.656 108.88 93.976L107.2 93.4C107.896 91.336 110.032 90.28 112.096 90.28C115.12 90.28 117.04 92.296 117.04 95.368V103H115.36L115.24 101.08C114.448 102.616 112.864 103.36 111.184 103.36C108.904 103.36 106.744 102.04 106.744 99.52ZM108.688 99.448C108.688 101.032 110.104 101.752 111.544 101.752C113.56 101.752 115.192 100.264 115.192 98.176V97.72C114.184 97.312 113.152 97.048 112.072 97.048C110.56 97.048 108.688 97.624 108.688 99.448ZM120.305 103V85.192H122.225V103H120.305ZM124.762 100.384L126.49 99.76C127.09 100.936 128.146 101.68 129.49 101.68C130.714 101.68 132.154 101.056 132.154 99.64C132.154 98.608 131.41 97.936 129.898 97.624L128.962 97.432C127.066 97.048 125.122 96.184 125.122 93.952C125.122 91.504 127.21 90.256 129.49 90.256C131.506 90.256 133.21 91.24 133.93 93.208L132.202 93.784C131.938 93.184 131.578 92.728 131.122 92.392C130.642 92.08 130.09 91.912 129.466 91.912C128.362 91.912 127.042 92.464 127.042 93.76C127.042 95.104 128.458 95.512 129.538 95.704L130.474 95.896C132.394 96.28 134.122 97.264 134.122 99.448C134.122 101.992 131.866 103.36 129.49 103.36C127.45 103.36 125.554 102.352 124.762 100.384Z" fill="#101517"/>
</g>
<rect x="3" y="35" width="363" height="91" rx="45.5" fill="#FBFFDC"/>
<ellipse cx="48.5" cy="80" rx="35.5" ry="35" fill="#ADBC42"/>
<g filter="url(#filter2_d_108_2850)">
<path d="M106.864 72.52L108.76 71.92C109.36 73.552 110.8 74.56 112.552 74.56C114.424 74.56 116.176 73.384 116.176 71.344C116.176 69.472 114.688 68.68 113.056 68.32L112 68.08C109.528 67.504 107.296 66.208 107.296 63.4C107.296 60.496 109.696 58.6 112.528 58.6C115.024 58.6 117.184 59.968 117.952 62.416L116.056 63.016C115.456 61.432 114.256 60.4 112.528 60.4C110.848 60.4 109.336 61.432 109.336 63.256C109.336 65.128 111.088 65.824 112.648 66.184L113.704 66.424C116.224 67.024 118.216 68.416 118.216 71.224C118.216 74.392 115.672 76.36 112.576 76.36C110.056 76.36 107.704 75.016 106.864 72.52ZM126.746 76.36C123.098 76.36 120.626 73.408 120.626 69.808C120.626 66.28 123.074 63.256 126.794 63.256C130.466 63.256 132.914 66.16 132.914 69.808C132.914 73.36 130.49 76.36 126.746 76.36ZM122.594 69.808C122.594 71.032 122.93 72.328 123.794 73.24C124.538 74.128 125.618 74.608 126.77 74.608C129.41 74.608 130.946 72.328 130.946 69.808C130.946 68.536 130.61 67.336 129.77 66.352C128.954 65.488 127.97 65.008 126.77 65.008C124.13 65.008 122.594 67.312 122.594 69.808ZM135.545 63.616H137.465V70.648C137.465 72.688 138.425 74.608 140.729 74.608C143.033 74.608 143.993 72.784 143.993 70.648V63.616H145.913V70.624C145.913 73.792 144.113 76.36 140.681 76.36C137.297 76.36 135.545 73.912 135.545 70.624V63.616ZM149.188 63.616H150.916L151.036 65.92C151.66 64.384 152.86 63.448 154.54 63.448C154.804 63.448 155.068 63.472 155.284 63.496C155.5 63.544 155.668 63.592 155.836 63.664L155.596 65.488C155.236 65.344 154.852 65.32 154.468 65.32C152.164 65.32 151.108 67.312 151.108 69.424V76H149.188V63.616ZM163.071 76.36C159.495 76.36 157.119 73.408 157.119 69.904C157.119 66.448 159.471 63.256 163.167 63.256C165.399 63.256 167.247 64.48 168.111 66.568L166.359 67.168C165.687 65.896 164.583 65.008 163.095 65.008C160.503 65.008 159.087 67.504 159.087 69.88C159.087 71.56 159.831 73.552 161.487 74.248C161.967 74.488 162.495 74.608 163.071 74.608C164.535 74.608 165.879 73.816 166.503 72.472L168.255 73.072C167.415 75.184 165.303 76.36 163.071 76.36ZM172.764 76H170.844V63.616H172.764V76ZM171.804 61.312C171.108 61.312 170.484 60.688 170.484 59.992C170.484 59.272 171.084 58.672 171.804 58.672C172.548 58.672 173.124 59.224 173.124 59.992C173.124 60.712 172.524 61.312 171.804 61.312ZM176.118 63.616H177.846L177.942 65.584C178.734 64.072 180.27 63.256 181.95 63.256C185.142 63.256 186.606 65.752 186.606 68.752V76H184.686V68.872C184.686 66.832 183.894 65.008 181.59 65.008C179.478 65.008 178.038 66.52 178.038 68.656V76H176.118V63.616ZM189.251 69.592C189.251 66.28 191.555 63.256 195.083 63.256C196.907 63.256 198.587 64.144 199.475 65.776L199.571 63.616H201.299V74.944C201.299 78.52 199.115 81.256 195.299 81.256C193.043 81.256 191.123 80.32 189.923 78.328L191.531 77.512C192.419 78.832 193.691 79.6 195.299 79.6C198.011 79.6 199.379 77.632 199.379 75.016V73.432C198.443 75.016 196.835 75.88 194.987 75.88C191.555 75.88 189.251 72.928 189.251 69.592ZM191.219 69.568C191.219 71.968 192.731 74.128 195.323 74.128C197.867 74.128 199.427 72.04 199.427 69.568C199.427 67.144 197.963 65.008 195.323 65.008C192.779 65.008 191.219 67.096 191.219 69.568ZM209.914 63.616H211.642L211.738 65.584C212.53 64.072 214.066 63.256 215.746 63.256C218.938 63.256 220.402 65.752 220.402 68.752V76H218.482V68.872C218.482 66.832 217.69 65.008 215.386 65.008C213.274 65.008 211.834 66.52 211.834 68.656V76H209.914V63.616ZM223.048 69.832C223.048 66.4 225.304 63.28 228.976 63.28C232.408 63.28 234.664 65.992 234.664 69.4V70.192H225.04C225.232 72.592 226.576 74.656 229.24 74.656C230.752 74.656 231.976 74.008 232.792 72.712L234.424 73.456C233.416 75.376 231.424 76.36 229.288 76.36C225.568 76.36 223.048 73.552 223.048 69.832ZM228.976 64.912C226.816 64.912 225.472 66.688 225.136 68.704H232.648C232.456 66.688 231.184 64.912 228.976 64.912ZM240.475 76L236.299 63.616H238.315L241.411 73.648L244.603 63.616H246.331L249.499 73.648L252.595 63.616H254.563L250.387 76H248.539L245.443 66.088L242.323 76H240.475ZM107.68 84.192H109.6V91.8C110.56 90.144 112.168 89.256 114.064 89.256C117.616 89.256 119.872 92.376 119.872 95.784C119.872 99.168 117.616 102.36 113.968 102.36C112.072 102.36 110.44 101.4 109.504 99.744L109.408 102H107.68V84.192ZM113.728 91.008C111.088 91.008 109.552 93.312 109.552 95.808C109.552 97.032 109.888 98.328 110.752 99.24C111.496 100.128 112.576 100.608 113.728 100.608C116.368 100.608 117.904 98.328 117.904 95.808C117.904 94.536 117.568 93.336 116.728 92.352C115.912 91.488 114.928 91.008 113.728 91.008ZM122.61 89.616H124.338L124.458 91.92C125.082 90.384 126.282 89.448 127.962 89.448C128.226 89.448 128.49 89.472 128.706 89.496C128.922 89.544 129.09 89.592 129.258 89.664L129.018 91.488C128.658 91.344 128.274 91.32 127.89 91.32C125.586 91.32 124.53 93.312 124.53 95.424V102H122.61V89.616ZM130.682 98.52C130.682 95.688 133.274 94.536 135.794 94.536C136.85 94.536 138.194 94.776 139.13 95.232V94.32C139.13 92.424 138.026 90.96 136.01 90.96C134.618 90.96 133.37 91.656 132.818 92.976L131.138 92.4C131.834 90.336 133.97 89.28 136.034 89.28C139.058 89.28 140.978 91.296 140.978 94.368V102H139.298L139.178 100.08C138.386 101.616 136.802 102.36 135.122 102.36C132.842 102.36 130.682 101.04 130.682 98.52ZM132.626 98.448C132.626 100.032 134.042 100.752 135.482 100.752C137.498 100.752 139.13 99.264 139.13 97.176V96.72C138.122 96.312 137.09 96.048 136.01 96.048C134.498 96.048 132.626 96.624 132.626 98.448ZM144.243 89.616H145.971L146.067 91.584C146.859 90.072 148.395 89.256 150.075 89.256C153.267 89.256 154.731 91.752 154.731 94.752V102H152.811V94.872C152.811 92.832 152.019 91.008 149.715 91.008C147.603 91.008 146.163 92.52 146.163 94.656V102H144.243V89.616ZM163.184 102.36C159.656 102.36 157.376 99.216 157.376 95.832C157.376 92.448 159.632 89.256 163.28 89.256C165.128 89.256 166.712 90.12 167.648 91.728V84.192H169.568V102H167.84L167.744 99.648C166.784 101.4 165.176 102.36 163.184 102.36ZM159.344 95.808C159.344 97.032 159.68 98.328 160.544 99.24C161.288 100.128 162.368 100.608 163.52 100.608C166.16 100.608 167.696 98.328 167.696 95.808C167.696 94.536 167.36 93.336 166.52 92.352C165.704 91.488 164.72 91.008 163.52 91.008C160.88 91.008 159.344 93.312 159.344 95.808ZM183.364 102.36C179.836 102.36 177.556 99.216 177.556 95.832C177.556 92.448 179.812 89.256 183.46 89.256C185.308 89.256 186.892 90.12 187.828 91.728V84.192H189.748V102H188.02L187.924 99.648C186.964 101.4 185.356 102.36 183.364 102.36ZM179.524 95.808C179.524 97.032 179.86 98.328 180.724 99.24C181.468 100.128 182.548 100.608 183.7 100.608C186.34 100.608 187.876 98.328 187.876 95.808C187.876 94.536 187.54 93.336 186.7 92.352C185.884 91.488 184.9 91.008 183.7 91.008C181.06 91.008 179.524 93.312 179.524 95.808ZM192.486 95.832C192.486 92.4 194.742 89.28 198.414 89.28C201.846 89.28 204.102 91.992 204.102 95.4V96.192H194.478C194.67 98.592 196.014 100.656 198.678 100.656C200.19 100.656 201.414 100.008 202.23 98.712L203.862 99.456C202.854 101.376 200.862 102.36 198.726 102.36C195.006 102.36 192.486 99.552 192.486 95.832ZM198.414 90.912C196.254 90.912 194.91 92.688 194.574 94.704H202.086C201.894 92.688 200.622 90.912 198.414 90.912ZM206.244 98.52C206.244 95.688 208.836 94.536 211.356 94.536C212.412 94.536 213.756 94.776 214.692 95.232V94.32C214.692 92.424 213.588 90.96 211.572 90.96C210.18 90.96 208.932 91.656 208.38 92.976L206.7 92.4C207.396 90.336 209.532 89.28 211.596 89.28C214.62 89.28 216.54 91.296 216.54 94.368V102H214.86L214.74 100.08C213.948 101.616 212.364 102.36 210.684 102.36C208.404 102.36 206.244 101.04 206.244 98.52ZM208.188 98.448C208.188 100.032 209.604 100.752 211.044 100.752C213.06 100.752 214.692 99.264 214.692 97.176V96.72C213.684 96.312 212.652 96.048 211.572 96.048C210.06 96.048 208.188 96.624 208.188 98.448ZM219.805 102V84.192H221.725V102H219.805ZM224.262 99.384L225.99 98.76C226.59 99.936 227.646 100.68 228.99 100.68C230.214 100.68 231.654 100.056 231.654 98.64C231.654 97.608 230.91 96.936 229.398 96.624L228.462 96.432C226.566 96.048 224.622 95.184 224.622 92.952C224.622 90.504 226.71 89.256 228.99 89.256C231.006 89.256 232.71 90.24 233.43 92.208L231.702 92.784C231.438 92.184 231.078 91.728 230.622 91.392C230.142 91.08 229.59 90.912 228.966 90.912C227.862 90.912 226.542 91.464 226.542 92.76C226.542 94.104 227.958 94.512 229.038 94.704L229.974 94.896C231.894 95.28 233.622 96.264 233.622 98.448C233.622 100.992 231.366 102.36 228.99 102.36C226.95 102.36 225.054 101.352 224.262 99.384Z" fill="#101517"/>
</g>
<path d="M60.2167 93.375L50.5042 83.6625C49.7333 84.2792 48.8469 84.7674 47.8448 85.1271C46.8427 85.4868 45.7764 85.6667 44.6458 85.6667C41.8451 85.6667 39.4751 84.6964 37.5357 82.756C35.5963 80.8156 34.626 78.4455 34.625 75.6458C34.624 72.8462 35.5942 70.4761 37.5357 68.5357C39.4771 66.5952 41.8472 65.625 44.6458 65.625C47.4445 65.625 49.815 66.5952 51.7575 68.5357C53.7 70.4761 54.6698 72.8462 54.6667 75.6458C54.6667 76.7764 54.4868 77.8427 54.1271 78.8448C53.7674 79.8469 53.2792 80.7333 52.6625 81.5042L62.375 91.2167L60.2167 93.375ZM44.6458 82.5833C46.5729 82.5833 48.2112 81.9091 49.5607 80.5607C50.9101 79.2122 51.5844 77.5739 51.5833 75.6458C51.5823 73.7177 50.9081 72.08 49.5607 70.7325C48.2133 69.3851 46.575 68.7104 44.6458 68.7083C42.7167 68.7063 41.0789 69.381 39.7325 70.7325C38.3862 72.0841 37.7114 73.7218 37.7083 75.6458C37.7053 77.5698 38.38 79.2081 39.7325 80.5607C41.0851 81.9132 42.7229 82.5874 44.6458 82.5833Z" fill="white"/>
<rect y="147" width="366" height="91" rx="45.5" fill="#FBFFDC"/>
<ellipse cx="45.5" cy="192" rx="35.5" ry="35" fill="#ADBC42"/>
<g filter="url(#filter3_d_108_2850)">
<path d="M104.872 187V169.96H106.888V187H104.872ZM110.446 174.616H112.174L112.27 176.584C113.062 175.072 114.598 174.256 116.278 174.256C119.47 174.256 120.934 176.752 120.934 179.752V187H119.014V179.872C119.014 177.832 118.222 176.008 115.918 176.008C113.806 176.008 112.366 177.52 112.366 179.656V187H110.446V174.616ZM122.604 174.616H124.716L128.484 184.936L132.252 174.616H134.292L129.444 187H127.452L122.604 174.616ZM141.629 187.36C137.981 187.36 135.509 184.408 135.509 180.808C135.509 177.28 137.957 174.256 141.677 174.256C145.349 174.256 147.797 177.16 147.797 180.808C147.797 184.36 145.373 187.36 141.629 187.36ZM137.477 180.808C137.477 182.032 137.813 183.328 138.677 184.24C139.421 185.128 140.501 185.608 141.653 185.608C144.293 185.608 145.829 183.328 145.829 180.808C145.829 179.536 145.493 178.336 144.653 177.352C143.837 176.488 142.853 176.008 141.653 176.008C139.013 176.008 137.477 178.312 137.477 180.808ZM152.444 187H150.524V174.616H152.444V187ZM151.484 172.312C150.788 172.312 150.164 171.688 150.164 170.992C150.164 170.272 150.764 169.672 151.484 169.672C152.228 169.672 152.804 170.224 152.804 170.992C152.804 171.712 152.204 172.312 151.484 172.312ZM161.125 187.36C157.549 187.36 155.173 184.408 155.173 180.904C155.173 177.448 157.525 174.256 161.221 174.256C163.453 174.256 165.301 175.48 166.165 177.568L164.413 178.168C163.741 176.896 162.637 176.008 161.149 176.008C158.557 176.008 157.141 178.504 157.141 180.88C157.141 182.56 157.885 184.552 159.541 185.248C160.021 185.488 160.549 185.608 161.125 185.608C162.589 185.608 163.933 184.816 164.557 183.472L166.309 184.072C165.469 186.184 163.357 187.36 161.125 187.36ZM170.819 187H168.899V174.616H170.819V187ZM169.859 172.312C169.163 172.312 168.539 171.688 168.539 170.992C168.539 170.272 169.139 169.672 169.859 169.672C170.603 169.672 171.179 170.224 171.179 170.992C171.179 171.712 170.579 172.312 169.859 172.312ZM174.172 174.616H175.9L175.996 176.584C176.788 175.072 178.324 174.256 180.004 174.256C183.196 174.256 184.66 176.752 184.66 179.752V187H182.74V179.872C182.74 177.832 181.948 176.008 179.644 176.008C177.532 176.008 176.092 177.52 176.092 179.656V187H174.172V174.616ZM187.306 180.592C187.306 177.28 189.61 174.256 193.138 174.256C194.962 174.256 196.642 175.144 197.53 176.776L197.626 174.616H199.354V185.944C199.354 189.52 197.17 192.256 193.354 192.256C191.098 192.256 189.178 191.32 187.978 189.328L189.586 188.512C190.474 189.832 191.746 190.6 193.354 190.6C196.066 190.6 197.434 188.632 197.434 186.016V184.432C196.498 186.016 194.89 186.88 193.042 186.88C189.61 186.88 187.306 183.928 187.306 180.592ZM189.274 180.568C189.274 182.968 190.786 185.128 193.378 185.128C195.922 185.128 197.482 183.04 197.482 180.568C197.482 178.144 196.018 176.008 193.378 176.008C190.834 176.008 189.274 178.096 189.274 180.568ZM207.969 169.192H209.889V176.8C210.849 175.144 212.457 174.256 214.353 174.256C217.905 174.256 220.161 177.376 220.161 180.784C220.161 184.168 217.905 187.36 214.257 187.36C212.361 187.36 210.729 186.4 209.793 184.744L209.697 187H207.969V169.192ZM214.017 176.008C211.377 176.008 209.841 178.312 209.841 180.808C209.841 182.032 210.177 183.328 211.041 184.24C211.785 185.128 212.865 185.608 214.017 185.608C216.657 185.608 218.193 183.328 218.193 180.808C218.193 179.536 217.857 178.336 217.017 177.352C216.201 176.488 215.217 176.008 214.017 176.008ZM222.899 174.616H224.627L224.747 176.92C225.371 175.384 226.571 174.448 228.251 174.448C228.515 174.448 228.779 174.472 228.995 174.496C229.211 174.544 229.379 174.592 229.547 174.664L229.307 176.488C228.947 176.344 228.563 176.32 228.179 176.32C225.875 176.32 224.819 178.312 224.819 180.424V187H222.899V174.616ZM230.971 183.52C230.971 180.688 233.563 179.536 236.083 179.536C237.139 179.536 238.483 179.776 239.419 180.232V179.32C239.419 177.424 238.315 175.96 236.299 175.96C234.907 175.96 233.659 176.656 233.107 177.976L231.427 177.4C232.123 175.336 234.259 174.28 236.323 174.28C239.347 174.28 241.267 176.296 241.267 179.368V187H239.587L239.467 185.08C238.675 186.616 237.091 187.36 235.411 187.36C233.131 187.36 230.971 186.04 230.971 183.52ZM232.915 183.448C232.915 185.032 234.331 185.752 235.771 185.752C237.787 185.752 239.419 184.264 239.419 182.176V181.72C238.411 181.312 237.379 181.048 236.299 181.048C234.787 181.048 232.915 181.624 232.915 183.448ZM244.532 174.616H246.26L246.356 176.584C247.148 175.072 248.684 174.256 250.364 174.256C253.556 174.256 255.02 176.752 255.02 179.752V187H253.1V179.872C253.1 177.832 252.308 176.008 250.004 176.008C247.892 176.008 246.452 177.52 246.452 179.656V187H244.532V174.616ZM263.473 187.36C259.945 187.36 257.665 184.216 257.665 180.832C257.665 177.448 259.921 174.256 263.569 174.256C265.417 174.256 267.001 175.12 267.937 176.728V169.192H269.857V187H268.129L268.033 184.648C267.073 186.4 265.465 187.36 263.473 187.36ZM259.633 180.808C259.633 182.032 259.969 183.328 260.833 184.24C261.577 185.128 262.657 185.608 263.809 185.608C266.449 185.608 267.985 183.328 267.985 180.808C267.985 179.536 267.649 178.336 266.809 177.352C265.993 176.488 265.009 176.008 263.809 176.008C261.169 176.008 259.633 178.312 259.633 180.808ZM272.403 184.384L274.131 183.76C274.731 184.936 275.787 185.68 277.131 185.68C278.355 185.68 279.795 185.056 279.795 183.64C279.795 182.608 279.051 181.936 277.539 181.624L276.603 181.432C274.707 181.048 272.763 180.184 272.763 177.952C272.763 175.504 274.851 174.256 277.131 174.256C279.147 174.256 280.851 175.24 281.571 177.208L279.843 177.784C279.579 177.184 279.219 176.728 278.763 176.392C278.283 176.08 277.731 175.912 277.107 175.912C276.003 175.912 274.683 176.464 274.683 177.76C274.683 179.104 276.099 179.512 277.179 179.704L278.115 179.896C280.035 180.28 281.763 181.264 281.763 183.448C281.763 185.992 279.507 187.36 277.131 187.36C275.091 187.36 273.195 186.352 272.403 184.384ZM288.955 183.52C288.955 180.688 291.547 179.536 294.067 179.536C295.123 179.536 296.467 179.776 297.403 180.232V179.32C297.403 177.424 296.299 175.96 294.283 175.96C292.891 175.96 291.643 176.656 291.091 177.976L289.411 177.4C290.107 175.336 292.243 174.28 294.307 174.28C297.331 174.28 299.251 176.296 299.251 179.368V187H297.571L297.451 185.08C296.659 186.616 295.075 187.36 293.395 187.36C291.115 187.36 288.955 186.04 288.955 183.52ZM290.899 183.448C290.899 185.032 292.315 185.752 293.755 185.752C295.771 185.752 297.403 184.264 297.403 182.176V181.72C296.395 181.312 295.363 181.048 294.283 181.048C292.771 181.048 290.899 181.624 290.899 183.448ZM302.516 174.616H304.244L304.34 176.584C305.132 175.072 306.668 174.256 308.348 174.256C311.54 174.256 313.004 176.752 313.004 179.752V187H311.084V179.872C311.084 177.832 310.292 176.008 307.988 176.008C305.876 176.008 304.436 177.52 304.436 179.656V187H302.516V174.616ZM321.458 187.36C317.93 187.36 315.65 184.216 315.65 180.832C315.65 177.448 317.906 174.256 321.554 174.256C323.402 174.256 324.986 175.12 325.922 176.728V169.192H327.842V187H326.114L326.018 184.648C325.058 186.4 323.45 187.36 321.458 187.36ZM317.618 180.808C317.618 182.032 317.954 183.328 318.818 184.24C319.562 185.128 320.642 185.608 321.794 185.608C324.434 185.608 325.97 183.328 325.97 180.808C325.97 179.536 325.634 178.336 324.794 177.352C323.978 176.488 322.994 176.008 321.794 176.008C319.154 176.008 317.618 178.312 317.618 180.808ZM104.08 209.52C104.08 206.688 106.672 205.536 109.192 205.536C110.248 205.536 111.592 205.776 112.528 206.232V205.32C112.528 203.424 111.424 201.96 109.408 201.96C108.016 201.96 106.768 202.656 106.216 203.976L104.536 203.4C105.232 201.336 107.368 200.28 109.432 200.28C112.456 200.28 114.376 202.296 114.376 205.368V213H112.696L112.576 211.08C111.784 212.616 110.2 213.36 108.52 213.36C106.24 213.36 104.08 212.04 104.08 209.52ZM106.024 209.448C106.024 211.032 107.44 211.752 108.88 211.752C110.896 211.752 112.528 210.264 112.528 208.176V207.72C111.52 207.312 110.488 207.048 109.408 207.048C107.896 207.048 106.024 207.624 106.024 209.448ZM117.017 206.592C117.017 203.28 119.321 200.256 122.849 200.256C124.673 200.256 126.353 201.144 127.241 202.776L127.337 200.616H129.065V211.944C129.065 215.52 126.881 218.256 123.065 218.256C120.809 218.256 118.889 217.32 117.689 215.328L119.297 214.512C120.185 215.832 121.457 216.6 123.065 216.6C125.777 216.6 127.145 214.632 127.145 212.016V210.432C126.209 212.016 124.601 212.88 122.753 212.88C119.321 212.88 117.017 209.928 117.017 206.592ZM118.985 206.568C118.985 208.968 120.497 211.128 123.089 211.128C125.633 211.128 127.193 209.04 127.193 206.568C127.193 204.144 125.729 202.008 123.089 202.008C120.545 202.008 118.985 204.096 118.985 206.568ZM131.806 206.832C131.806 203.4 134.062 200.28 137.734 200.28C141.166 200.28 143.422 202.992 143.422 206.4V207.192H133.798C133.99 209.592 135.334 211.656 137.998 211.656C139.51 211.656 140.734 211.008 141.55 209.712L143.182 210.456C142.174 212.376 140.182 213.36 138.046 213.36C134.326 213.36 131.806 210.552 131.806 206.832ZM137.734 201.912C135.574 201.912 134.23 203.688 133.894 205.704H141.406C141.214 203.688 139.942 201.912 137.734 201.912ZM146.164 200.616H147.892L147.988 202.584C148.78 201.072 150.316 200.256 151.996 200.256C155.188 200.256 156.652 202.752 156.652 205.752V213H154.732V205.872C154.732 203.832 153.94 202.008 151.636 202.008C149.524 202.008 148.084 203.52 148.084 205.656V213H146.164V200.616ZM165.25 213.36C161.674 213.36 159.298 210.408 159.298 206.904C159.298 203.448 161.65 200.256 165.346 200.256C167.578 200.256 169.426 201.48 170.29 203.568L168.538 204.168C167.866 202.896 166.762 202.008 165.274 202.008C162.682 202.008 161.266 204.504 161.266 206.88C161.266 208.56 162.01 210.552 163.666 211.248C164.146 211.488 164.674 211.608 165.25 211.608C166.714 211.608 168.058 210.816 168.682 209.472L170.434 210.072C169.594 212.184 167.482 213.36 165.25 213.36ZM174.944 213H173.024V200.616H174.944V213ZM173.984 198.312C173.288 198.312 172.664 197.688 172.664 196.992C172.664 196.272 173.264 195.672 173.984 195.672C174.728 195.672 175.304 196.224 175.304 196.992C175.304 197.712 174.704 198.312 173.984 198.312ZM177.673 206.832C177.673 203.4 179.929 200.28 183.601 200.28C187.033 200.28 189.289 202.992 189.289 206.4V207.192H179.665C179.857 209.592 181.201 211.656 183.865 211.656C185.377 211.656 186.601 211.008 187.417 209.712L189.049 210.456C188.041 212.376 186.049 213.36 183.913 213.36C180.193 213.36 177.673 210.552 177.673 206.832ZM183.601 201.912C181.441 201.912 180.097 203.688 179.761 205.704H187.273C187.081 203.688 185.809 201.912 183.601 201.912ZM191.262 210.384L192.99 209.76C193.59 210.936 194.646 211.68 195.99 211.68C197.214 211.68 198.654 211.056 198.654 209.64C198.654 208.608 197.91 207.936 196.398 207.624L195.462 207.432C193.566 207.048 191.622 206.184 191.622 203.952C191.622 201.504 193.71 200.256 195.99 200.256C198.006 200.256 199.71 201.24 200.43 203.208L198.702 203.784C198.438 203.184 198.078 202.728 197.622 202.392C197.142 202.08 196.59 201.912 195.966 201.912C194.862 201.912 193.542 202.464 193.542 203.76C193.542 205.104 194.958 205.512 196.038 205.704L196.974 205.896C198.894 206.28 200.622 207.264 200.622 209.448C200.622 211.992 198.366 213.36 195.99 213.36C193.95 213.36 192.054 212.352 191.262 210.384Z" fill="#101517"/>
</g>
<path d="M60.028 174.5C58.0803 174.5 56.5 179.201 56.5 185H60.028C61.729 185 62.5778 185 63.1045 184.414C63.6295 183.826 63.5385 183.052 63.3565 181.507C62.87 177.423 61.5645 174.5 60.028 174.5Z" stroke="white" stroke-width="3" stroke-linecap="round" stroke-linejoin="round"/>
<path d="M56.5 185.094V203.63C56.5 206.275 56.5 207.598 55.6915 208.119C54.3703 208.97 52.328 207.185 51.3008 206.537C50.452 206.002 50.0285 205.736 49.5577 205.72C49.0485 205.703 48.6162 205.96 47.6992 206.537L44.355 208.646C43.452 209.215 43.0023 209.5 42.5 209.5C41.9977 209.5 41.5462 209.215 40.645 208.646L37.3025 206.537C36.452 206.002 36.0285 205.736 35.5577 205.72C35.0485 205.703 34.6163 205.96 33.6993 206.537C32.672 207.185 30.6297 208.97 29.3067 208.119C28.5 207.598 28.5 206.276 28.5 203.63V185.094C28.5 180.1 28.5 177.605 30.0382 176.052C31.5747 174.5 34.051 174.5 39 174.5H60" stroke="white" stroke-width="3" stroke-linecap="round" stroke-linejoin="round"/>
<path d="M42.5 185C40.5662 185 39 186.176 39 187.625C39 189.074 40.5662 190.25 42.5 190.25C44.4338 190.25 46 191.426 46 192.875C46 194.324 44.4338 195.5 42.5 195.5M42.5 185C44.0225 185 45.321 185.73 45.8005 186.75M42.5 185V183.25M42.5 195.5C40.9775 195.5 39.679 194.77 39.1995 193.75M42.5 195.5V197.25" stroke="white" stroke-width="3" stroke-linecap="round" stroke-linejoin="round"/>
<defs>
<filter id="filter0_d_108_2850" x="45.5801" y="220.692" width="329.675" height="165.704" filterUnits="userSpaceOnUse" color-interpolation-filters="sRGB">
<feFlood flood-opacity="0" result="BackgroundImageFix"/>
<feColorMatrix in="SourceAlpha" type="matrix" values="0 0 0 0 0 0 0 0 0 0 0 0 0 0 0 0 0 0 127 0" result="hardAlpha"/>
<feOffset/>
<feGaussianBlur stdDeviation="29.25"/>
<feComposite in2="hardAlpha" operator="out"/>
<feColorMatrix type="matrix" values="0 0 0 0 0 0 0 0 0 0 0 0 0 0 0 0 0 0 0.25 0"/>
<feBlend mode="normal" in2="BackgroundImageFix" result="effect1_dropShadow_108_2850"/>
<feBlend mode="normal" in="SourceGraphic" in2="effect1_dropShadow_108_2850" result="shape"/>
</filter>
<filter id="filter1_d_108_2850" x="19.3638" y="0.691895" width="333.947" height="161.168" filterUnits="userSpaceOnUse" color-interpolation-filters="sRGB">
<feFlood flood-opacity="0" result="BackgroundImageFix"/>
<feColorMatrix in="SourceAlpha" type="matrix" values="0 0 0 0 0 0 0 0 0 0 0 0 0 0 0 0 0 0 127 0" result="hardAlpha"/>
<feOffset/>
<feGaussianBlur stdDeviation="29.25"/>
<feComposite in2="hardAlpha" operator="out"/>
<feColorMatrix type="matrix" values="0 0 0 0 0 0 0 0 0 0 0 0 0 0 0 0 0 0 0.25 0"/>
<feBlend mode="normal" in2="BackgroundImageFix" result="effect1_dropShadow_108_2850"/>
<feBlend mode="normal" in="SourceGraphic" in2="effect1_dropShadow_108_2850" result="shape"/>
</filter>
<filter id="filter2_d_108_2850" x="48.3638" y="0.100098" width="264.699" height="160.76" filterUnits="userSpaceOnUse" color-interpolation-filters="sRGB">
<feFlood flood-opacity="0" result="BackgroundImageFix"/>
<feColorMatrix in="SourceAlpha" type="matrix" values="0 0 0 0 0 0 0 0 0 0 0 0 0 0 0 0 0 0 127 0" result="hardAlpha"/>
<feOffset/>
<feGaussianBlur stdDeviation="29.25"/>
<feComposite in2="hardAlpha" operator="out"/>
<feColorMatrix type="matrix" values="0 0 0 0 0 0 0 0 0 0 0 0 0 0 0 0 0 0 0.25 0"/>
<feBlend mode="normal" in2="BackgroundImageFix" result="effect1_dropShadow_108_2850"/>
<feBlend mode="normal" in="SourceGraphic" in2="effect1_dropShadow_108_2850" result="shape"/>
</filter>
<filter id="filter3_d_108_2850" x="45.5801" y="110.692" width="340.762" height="166.064" filterUnits="userSpaceOnUse" color-interpolation-filters="sRGB">
<feFlood flood-opacity="0" result="BackgroundImageFix"/>
<feColorMatrix in="SourceAlpha" type="matrix" values="0 0 0 0 0 0 0 0 0 0 0 0 0 0 0 0 0 0 127 0" result="hardAlpha"/>
<feOffset/>
<feGaussianBlur stdDeviation="29.25"/>
<feComposite in2="hardAlpha" operator="out"/>
<feColorMatrix type="matrix" values="0 0 0 0 0 0 0 0 0 0 0 0 0 0 0 0 0 0 0.25 0"/>
<feBlend mode="normal" in2="BackgroundImageFix" result="effect1_dropShadow_108_2850"/>
<feBlend mode="normal" in="SourceGraphic" in2="effect1_dropShadow_108_2850" result="shape"/>
</filter>
<linearGradient id="paint0_linear_108_2850" x1="200.582" y1="256" x2="201.453" y2="347.003" gradientUnits="userSpaceOnUse">
<stop stop-color="#FBFFDC"/>
<stop offset="1" stop-color="#F9FDDA"/>
</linearGradient>
<linearGradient id="paint1_linear_108_2850" x1="200.582" y1="256" x2="200.582" y2="340.5" gradientUnits="userSpaceOnUse">
<stop stop-color="#FBFFDC" stop-opacity="0"/>
<stop offset="1" stop-color="#656B3C"/>
</linearGradient>
</defs>
</svg>
