<svg width="61" height="61" viewBox="0 0 61 61" fill="none" xmlns="http://www.w3.org/2000/svg">
<path d="M17.792 38.125H22.8753C22.8753 40.87 26.3574 43.2083 30.5003 43.2083C34.6432 43.2083 38.1253 40.87 38.1253 38.125C38.1253 35.3292 35.482 34.3125 29.8903 32.9654C24.502 31.6183 17.792 29.9408 17.792 22.875C17.792 18.3254 21.5282 14.4621 26.6878 13.1658V7.625H34.3128V13.1658C39.4724 14.4621 43.2087 18.3254 43.2087 22.875H38.1253C38.1253 20.13 34.6432 17.7917 30.5003 17.7917C26.3574 17.7917 22.8753 20.13 22.8753 22.875C22.8753 25.6708 25.5187 26.6875 31.1103 28.0346C36.4987 29.3817 43.2087 31.0592 43.2087 38.125C43.2087 42.6746 39.4724 46.5379 34.3128 47.8342V53.375H26.6878V47.8342C21.5282 46.5379 17.792 42.6746 17.792 38.125Z" fill="#F8FBDF"/>
</svg>
