<svg width="63" height="63" viewBox="0 0 63 63" fill="none" xmlns="http://www.w3.org/2000/svg">
<path d="M20.3434 6.5625C20.3434 6.04036 20.136 5.5396 19.7668 5.17038C19.3976 4.80117 18.8968 4.59375 18.3747 4.59375C17.8525 4.59375 17.3518 4.80117 16.9825 5.17038C16.6133 5.5396 16.4059 6.04036 16.4059 6.5625V10.71C12.6259 11.0119 10.1479 11.7521 8.32616 13.5765C6.50178 15.3982 5.76153 17.8789 5.45703 21.6562H57.5423C57.2378 17.8763 56.4975 15.3982 54.6732 13.5765C52.8514 11.7521 50.3708 11.0119 46.5934 10.7074V6.5625C46.5934 6.04036 46.386 5.5396 46.0168 5.17038C45.6476 4.80117 45.1468 4.59375 44.6247 4.59375C44.1025 4.59375 43.6017 4.80117 43.2325 5.17038C42.8633 5.5396 42.6559 6.04036 42.6559 6.5625V10.5341C40.9103 10.5 38.952 10.5 36.7497 10.5H26.2497C24.0473 10.5 22.089 10.5 20.3434 10.5341V6.5625Z" fill="#F8FBDF"/>
<path fill-rule="evenodd" clip-rule="evenodd" d="M5.25 31.5C5.25 29.2976 5.25 27.3394 5.28413 25.5938H57.7159C57.75 27.3394 57.75 29.2976 57.75 31.5V36.75C57.75 46.6489 57.75 51.5996 54.6735 54.6735C51.597 57.7474 46.6489 57.75 36.75 57.75H26.25C16.3511 57.75 11.4004 57.75 8.3265 54.6735C5.25262 51.597 5.25 46.6489 5.25 36.75V31.5ZM44.625 36.75C45.3212 36.75 45.9889 36.4734 46.4812 35.9812C46.9734 35.4889 47.25 34.8212 47.25 34.125C47.25 33.4288 46.9734 32.7611 46.4812 32.2688C45.9889 31.7766 45.3212 31.5 44.625 31.5C43.9288 31.5 43.2611 31.7766 42.7688 32.2688C42.2766 32.7611 42 33.4288 42 34.125C42 34.8212 42.2766 35.4889 42.7688 35.9812C43.2611 36.4734 43.9288 36.75 44.625 36.75ZM44.625 47.25C45.3212 47.25 45.9889 46.9734 46.4812 46.4812C46.9734 45.9889 47.25 45.3212 47.25 44.625C47.25 43.9288 46.9734 43.2611 46.4812 42.7688C45.9889 42.2766 45.3212 42 44.625 42C43.9288 42 43.2611 42.2766 42.7688 42.7688C42.2766 43.2611 42 43.9288 42 44.625C42 45.3212 42.2766 45.9889 42.7688 46.4812C43.2611 46.9734 43.9288 47.25 44.625 47.25ZM34.125 34.125C34.125 34.8212 33.8484 35.4889 33.3562 35.9812C32.8639 36.4734 32.1962 36.75 31.5 36.75C30.8038 36.75 30.1361 36.4734 29.6438 35.9812C29.1516 35.4889 28.875 34.8212 28.875 34.125C28.875 33.4288 29.1516 32.7611 29.6438 32.2688C30.1361 31.7766 30.8038 31.5 31.5 31.5C32.1962 31.5 32.8639 31.7766 33.3562 32.2688C33.8484 32.7611 34.125 33.4288 34.125 34.125ZM34.125 44.625C34.125 45.3212 33.8484 45.9889 33.3562 46.4812C32.8639 46.9734 32.1962 47.25 31.5 47.25C30.8038 47.25 30.1361 46.9734 29.6438 46.4812C29.1516 45.9889 28.875 45.3212 28.875 44.625C28.875 43.9288 29.1516 43.2611 29.6438 42.7688C30.1361 42.2766 30.8038 42 31.5 42C32.1962 42 32.8639 42.2766 33.3562 42.7688C33.8484 43.2611 34.125 43.9288 34.125 44.625ZM18.375 36.75C19.0712 36.75 19.7389 36.4734 20.2312 35.9812C20.7234 35.4889 21 34.8212 21 34.125C21 33.4288 20.7234 32.7611 20.2312 32.2688C19.7389 31.7766 19.0712 31.5 18.375 31.5C17.6788 31.5 17.0111 31.7766 16.5188 32.2688C16.0266 32.7611 15.75 33.4288 15.75 34.125C15.75 34.8212 16.0266 35.4889 16.5188 35.9812C17.0111 36.4734 17.6788 36.75 18.375 36.75ZM18.375 47.25C19.0712 47.25 19.7389 46.9734 20.2312 46.4812C20.7234 45.9889 21 45.3212 21 44.625C21 43.9288 20.7234 43.2611 20.2312 42.7688C19.7389 42.2766 19.0712 42 18.375 42C17.6788 42 17.0111 42.2766 16.5188 42.7688C16.0266 43.2611 15.75 43.9288 15.75 44.625C15.75 45.3212 16.0266 45.9889 16.5188 46.4812C17.0111 46.9734 17.6788 47.25 18.375 47.25Z" fill="#F8FBDF"/>
</svg>
